<svg xmlns="http://www.w3.org/2000/svg" version="1.1" xmlns:xlink="http://www.w3.org/1999/xlink" xmlns:svgjs="http://svgjs.dev/svgjs" width="1000" height="1000"><g clip-path="url(#SvgjsClipPath1053)"><rect width="1000" height="1000" fill="#ffffff"></rect><g transform="matrix(0.9765625,0,0,0.9765625,0,0)"><svg xmlns="http://www.w3.org/2000/svg" version="1.1" xmlns:xlink="http://www.w3.org/1999/xlink" xmlns:svgjs="http://svgjs.dev/svgjs" width="1024" height="1024"><svg id="Bridge_Favicon" xmlns="http://www.w3.org/2000/svg" version="1.1" viewBox="0 0 1024 1024">
  <!-- Generator: Adobe Illustrator 29.0.1, SVG Export Plug-In . SVG Version: 2.1.0 Build 192)  -->
  <defs>
    <style>
      .st0 {
        fill: #2d4f5e;
      }

      .st1 {
        fill: #fff;
      }
    </style>
  <clipPath id="SvgjsClipPath1053"><rect width="1000" height="1000" x="0" y="0" rx="500" ry="500"></rect></clipPath></defs>
  <path class="st1" d="M1104-89v1201.6H-80V-89h1184ZM490,19C241.9,27.6,44.8,218.9,15.4,462.6c-24.4,202.5,98.2,405.8,279.2,492.7,259.3,124.5,555.5,6.7,670.6-251.2C1103.5,394.4,869.5,31.6,535.4,18.7l-45.4.3Z"></path>
  <path class="st0" d="M491.4,20.4l45.4-.3c334.1,12.9,568.1,375.7,429.9,685.5-115.1,257.9-411.3,375.7-670.6,251.2C115,869.8-7.6,666.5,16.8,464S243.3,28.9,491.4,20.4ZM481.8,128.9h64.1c2.1,0,3.8-1.7,3.8-3.8,0-9.6-1.3-20.2,5.3-27.6s10.4-4.1,13.8-.8,4.3,5.1,7,9.6c21.5,35.5,49.9,72.5,79.5,102.9,58.2,59.7,139.4,106.1,217.5,134.9,24.9,9.2,50.9,14.9,76.3,22.2,1.4.4,2.8-.9,2.4-2.3-2.3-9.3-13-36.3-14.7-40.4-58.8-138.7-200.7-248.2-349.7-271.1-196.7-30.3-384.2,59.4-482.5,231-14.7,25.7-26.8,54.4-35.9,82.5,0,.3,0,.6.2.8l1.3,1.4c.2.2.5.3.8.2,79.7-16.5,159.8-54.3,228-99.9,49.7-33.3,117.7-97,145-150.4,5.3-10.4,13.6-25.9,23.7-23,11.9,3.4,10,19.1,10.1,29.9s1.8,3.8,3.9,3.8ZM422.2,421.5c.2,14-.5,26.6-.4,40.4,0,1.1.9,2.1,2.1,2.1,5,0,14,0,18.3,0s1.8-.8,1.8-1.8l9.2-312c0-1.2-1.6-1.8-2.3-.8s-.4.6-.6.9c-8.5,11.1-15.9,20.4-27.2,32-.3.3-.5.6-.6,1M578.7,372.9,580.7,421.6l1.4,42.4s1.2,0,1.4,0h20.7c1.4,0,1.3-.5,1.4-2,.8-6.8.1-17.7,0-25-1.5-67.8-1.9-136.2-1.1-204.1.2-14.1-.3-29.8-.3-44.1s-3.4-5.7-6.9-9.8c-7.4-8.8-14.9-19.4-21.3-29s-1.5-.7-1.9,0-.8,1.9-.8,3M479.7,302.9l65.9-.7c1.1,0,2-.9,2-2l1-122c0-.7-.6-1.3-1.3-1.3-23.4-.5-41-.5-67.3.8-.9,0-1.6.8-1.6,1.7l-.3,121.9c0,.9.7,1.6,1.6,1.6ZM377.6,463.9h30.4l-.3-257.3c0-.7-.5-1.2-1.2-1.2s-1.4.3-2.4,1.2c-5.5,4.7-12.4,14-18.2,19.6s-4.7,4.9-7.2,7.2-.8,1.1-.9,1.8c-.2,4.2,0,9.1-.2,13.3-1.8,49.3.5,98.7,0,148.2M620.9,463.9h25.9c.2,0,.1,0,.3,0,2.8,0,3.2-8.2,3.2-11.4.3-70.3-1.8-141-1.2-211.4,0-3.6-.2-5.7-2-8.1s-2.2-2.5-3.6-3.7c-7.5-6.6-14.2-14-20.7-21.5s-2.2-.5-2.4.5-.2,1.1-.2,1.8c-.1,9.4-.6,20.2,0,28.1M360.5,463.9c1,0,1.9-.8,1.9-1.8,0-7.6-.5-14.9-.4-23,.7-62.2,0-125,1.1-187.5,0-4.7-3-1.9-5.2.1-4,3.7-9,8.5-13.1,11.8s-5.7,5.1-11.2,9.6-1.7,2.1-1.7,3.5v186.9c0,.3.1.5.4.5h28.1ZM664.8,256.8l.3,206.7c0,.3.2.5.5.5h29.1c.4,0,.8-.4.8-.8-.7-36.5.6-71.4.4-108,0-22.9,1-50.4,0-72.5-.1-2.8-.3-3.7-.4-6.4s-.5-1.8-1.1-2.3c-5.8-4.9-9.4-7.9-14.1-11.8-4-3.3-8.2-7.6-12.9-10.5s-1.4,0-1.7.5c-.7,1.5-.9,3.5-1,4.6ZM317.5,315.9c0-8.5,0-19.2,0-27s.6-6-2.5-4.5c-8.7,5.2-16.6,11.8-26.2,17.2-.7.4-1.1,1.1-1.1,1.9v159.8c0,.4.3.7.7.7,6.2,0,29.7,0,29.7,0M713.5,463.9h26.3l.7-158.5c-.6-3.1-9.7-9.4-13.1-11.6s-12.4-8.4-13.8-6.9M242.8,326.2v136.2c0,.3.2.6.5.7l1.4.7c.2,0,.3.1.5.1h26.3c.6,0,1.1-.5,1.1-1.1l.4-80.7-.4-71.6M756.3,463.9h29v-133.7c0-.2,0-.5-.3-.7l-1.1-1.1c-.1-.1.2,0,0,0l-29-15.2M227.2,335.8c0-.5-.5-.9-.9-.7-3.4.9-15,7.4-17.4,8.6s-7.8,3.6-9.7,5.5-1.1,6-1,10.1c.7,28.5,0,56.2,0,84.9s0,12.8,0,17.7-.3,1.7,1,2h27.5c.9,0,1.6-.7,1.6-1.6l-1-126.6ZM828.2,463.3l.2-111.6c0-.3-.2-.6-.4-.7-8.1-4.5-17.3-8.5-26.5-13.4-.4-.2-1,0-1,.6v125.2c0,.3.2.5.5.5h26.4c.4,0,.7-.3.7-.7ZM546.3,347.8h-67.5c-.9,0-1.7.8-1.7,1.7l1.3,112.1c0,1.3,1.1,2.4,2.4,2.4,21,0,42.5,0,64,0h.1c1.4,0,2.6-1.2,2.6-2.6v-112.2c0-.7-.6-1.3-1.3-1.3ZM153.6,379c-.8,27.9.6,55.9.2,83.8.3,1.3,1.4,1.1,2.6,1.1h25.3c.6,0,1-.5,1-1v-106c0-.4-.4-.8-.8-.7-4.7,1.3-5.5,1.9-7.5,2.7-8,3.1-13.8,5.5-20.7,8.3M845.7,358.9c-2.3-1.4-1.6,2-1.6,3.6,0,11.6.1,31.8,0,45.7,0,5.5,0,11,0,16.5,0,13.4.6,25.3.6,38.7,0,.4.3.7.7.7,9.1,0,16.8,0,26.1,0s.8-.4.8-.8v-93.2M110.6,382c-.3.1-.5.4-.5.8l.7,80.6c0,.3.3.6.6.6h24.3c2.8,0,3.4,0,3.5-3,.6-20.5,1.3-46.6.6-66.1s0-15.4,0-23.5M888.7,375.7l.3,87.6c0,.3.3.6.6.6,9.5,0,17.4,0,27,0s2.9-14.6,2.8-18,0-6.7,0-9.7c-.1-18.1,0-32.7,0-51.5s-.4-1.1-1-1.3l-28.5-8.7c-.6-.2-1.3.3-1.3.9ZM94.2,386.5l-21.4,5.4c-3,.8-5.1,3.4-5.1,6.5l-.4,63.9c0,.9.7,1.7,1.6,1.7h24.3M960.9,463.9c0-13.8.2-25.9.3-39.4,0-2.5-.3-8-.3-10.4,0-6.7,0-11.8.2-18.6s-.5-1.5-1.3-1.6l-24-5.7c-.7-.2-2.6-.3-2.6-.3v1.4c0,1.4,0,2.4,0,2.8-1.4,26.3-1.4,47,0,71.4,0,.3.2.5.5.5M51,422l-6.3,40c-.2,1,.6,1.9,1.6,1.9h6.4c1.4,0,.5-11.5.4-14.5-.4-9,0-16.3-.4-24.2s0-11.1-1.7-3.2ZM437.8,645.8l6.4-137.6c.1-3-2.2-5.5-5.2-5.5-4.5,0-8.8,0-11.1.2-16.2.5-32.6,0-48.8,0-84.6.2-170.3.2-255,0-25,0-49.9,0-74.8-.8-3.4,0-6.2,2.5-6.4,5.9s-.3,5.9-.2,7.7c1,31.6,2.2,58.7,8.6,89.9,5.1,24.8,13.5,48.6,21.2,72.6.5,1.7,2.1,2.8,3.9,2.8l329.1,1c.4,0,.8-.1,1.2-.3h.1c.8-.5,1.2-1.3,1.2-2.2l-1.1-26.5c-.1-2.2,1.7-4.1,3.9-4.1h23.9c1.7,0,3.2-1.4,3.2-3.1ZM620.3,680.6h0c.9.9,2.1,1.4,3.4,1.4h319.5c2.4,0,4.7-1.5,5.5-3.8,16.8-44.5,27.8-91.8,29.1-139.7l.9-31.4c0-2.4-1.8-4.3-4.2-4.3l-388-.9-1.2.8c-1,1.4-.6,30.3-.5,34.8.8,27.3,3,54.7,4.2,81.8.4,8.7.4,16.8,1.1,25s1.7,3.5,3.7,3.6h23.2c2.1-.1,3.8,1.6,3.8,3.7M544.5,536.1l-61.7.9c-2.3,0-4.2,2-4.1,4.3l2.4,105.4c0,1.6,1.3,2.9,2.9,2.8l58-.5c2.5,0,4.5-2,4.6-4.5l1.9-104.4c0-2.2-1.8-4.1-4-4ZM916.7,741.1c-1.6-.2-3-1.1-4.7-1.1-3.7,0-25.8,13.2-31.9,15.8-35.4,14.9-68.4,15.7-104,1-25.3-10.4-44.2-28-71.8-33.9-80.4-17.1-108.5,41.7-178.9,46.1-20.8,1.3-45.7-2.3-65.3-9.3-27.2-9.6-46.1-29.4-76.3-36.7-77.5-18.6-102.9,38.5-168.3,43.9-22.9,1.9-48.7-2.4-70-10.9-8.3-3.3-34.6-19-40.9-18.2-4.3.6-1.9,4-.4,6.6,20.1,33.7,42.5,44.8,81.3,49.3,21.6,2.5,42.1-.3,62.8-6.4,43-12.5,63.2-41.6,114.4-39.1,39.2,1.9,59.9,26.8,93.8,38.9,42.7,15.1,81,12.2,122.9-3.6,35.8-13.5,54.3-34.9,96.5-35.1,49.5-.3,69.1,31.1,111.3,41.9,32.6,8.3,76.3,6.6,104.7-13.5,5.6-4,20.9-25.4,24-32s1.3-2.2,1-3.7ZM841,840.5c-9.2.8-18.3,1.3-27.5,1.1-41.9-1.2-49.1-13.6-83-28.9-30.7-13.8-64.2-15.9-96.6-6.7-19.4,5.5-29.1,14.9-45.8,23.6-35.6,18.6-77.1,23.5-116.2,13.5-32.8-8.4-57.6-33.5-90.9-40.7-73.4-15.8-104.1,38.7-168.8,38.1-4.6,0-11.8-.7-16.5-1.1s-17.7-3.6-18.2-1.5l31.6,29.6,2,.9c15.6-3.3,31.1-3.8,46.4-8.5,34.3-10.6,48.1-30.2,88.4-32.8,38.3-2.5,54,10.4,84.8,27.1,53.1,28.8,115.6,28.3,168.3-1,27.7-15.4,37.1-23.8,71.4-26.1,48.6-3.2,67.1,26.9,107.1,37,6.6,1.6,32.6,6.4,37.5,3.9l25.9-27.5Z"></path>
  <path class="st1" d="M974.7,463.9c-2.8,0-5.5-12.4,0-16.4"></path>
</svg></svg></g></g></svg>